<?xml version="1.0" standalone="no"?>
<!DOCTYPE svg PUBLIC "-//W3C//DTD SVG 20010904//EN"
 "http://www.w3.org/TR/2001/REC-SVG-20010904/DTD/svg10.dtd">
<svg version="1.0" xmlns="http://www.w3.org/2000/svg"
 width="1174.000000pt" height="400.000000pt" viewBox="0 0 1174.000000 400.000000"
 preserveAspectRatio="xMidYMid meet">

<g transform="translate(0.000000,400.000000) scale(0.100000,-0.100000)"
fill="#000000" stroke="none">
<path d="M3622 3930 c-139 -37 -255 -69 -257 -72 -6 -5 80 -3226 86 -3232 7
-7 501 -27 507 -21 3 3 0 326 -6 718 -7 391 -12 767 -12 834 l0 122 66 21
c100 30 224 28 292 -6 55 -27 98 -79 121 -144 21 -61 70 -669 86 -1085 9 -220
18 -415 21 -433 l5 -32 270 0 269 0 -5 23 c-2 12 -50 342 -105 732 -55 391
-107 757 -115 815 -20 140 -58 278 -102 369 -119 248 -330 299 -737 179 -54
-16 -101 -27 -103 -24 -3 3 -8 298 -11 655 -3 358 -8 651 -11 650 -3 -1 -120
-31 -259 -69z"/>
<path d="M10643 3667 c2 -6 152 -649 332 -1427 180 -778 331 -1418 334 -1422
3 -4 100 590 214 1319 114 729 205 1328 202 1331 -3 3 -236 50 -518 103 -281
54 -525 100 -541 103 -20 4 -27 2 -23 -7z"/>
<path d="M9280 3215 l0 -425 -152 5 c-84 3 -188 8 -230 10 -43 3 -78 2 -78 -2
0 -5 19 -142 42 -305 l43 -298 186 0 186 0 6 -287 c4 -159 9 -488 13 -733 3
-245 10 -474 15 -509 31 -195 170 -305 421 -332 254 -28 463 41 527 174 20 41
21 59 21 345 0 166 -2 302 -5 302 -4 0 -19 -7 -35 -15 -120 -62 -330 -93 -414
-61 -84 32 -77 -12 -104 622 -13 311 -22 567 -21 569 3 2 527 35 568 35 8 0
11 57 11 185 0 169 -1 185 -17 185 -10 0 -144 9 -298 20 -154 11 -281 20 -283
20 -2 0 0 170 4 378 l7 378 -199 82 c-109 45 -202 82 -206 82 -5 0 -8 -191 -8
-425z"/>
<path d="M315 3400 c-143 -36 -272 -70 -288 -74 l-27 -6 2 -1463 3 -1462 303
-10 c167 -5 306 -6 309 -2 3 5 2 235 -2 510 l-7 502 191 184 c106 101 194 182
196 180 2 -3 93 -315 203 -694 l200 -690 271 -3 c149 -1 271 1 271 5 0 3 -113
413 -250 910 l-251 903 376 412 c206 227 375 415 375 419 0 4 -118 52 -262
107 l-263 101 -55 -53 c-30 -29 -264 -253 -520 -496 l-465 -443 -3 616 -2 617
-23 -1 c-12 -1 -139 -32 -282 -69z"/>
<path d="M2526 2790 c-125 -16 -397 -88 -443 -117 -8 -6 10 -63 60 -194 l70
-186 66 33 c91 44 143 57 236 58 92 0 162 -20 224 -65 l41 -29 -1 -83 c0 -45
-3 -99 -7 -121 l-7 -38 -93 -24 c-383 -96 -611 -303 -697 -630 -40 -153 -40
-374 0 -529 49 -187 199 -331 379 -364 37 -7 219 -11 471 -11 l412 0 8 913 c8
1011 10 964 -57 1107 -39 81 -140 184 -218 222 -115 55 -289 78 -444 58z m256
-1505 c-2 -198 -5 -381 -8 -407 l-6 -48 -89 0 c-65 0 -103 6 -146 21 -127 47
-204 180 -188 327 32 301 174 476 380 469 l60 -2 -3 -360z"/>
<path d="M5935 2591 c-261 -44 -485 -180 -645 -393 -206 -274 -257 -636 -131
-939 187 -450 717 -712 1166 -578 296 89 514 329 598 659 18 72 22 112 21 255
-1 149 -4 182 -27 267 -96 362 -331 619 -647 708 -84 23 -254 34 -335 21z
m231 -444 c97 -49 179 -168 220 -317 25 -92 26 -312 0 -394 -38 -128 -117
-240 -195 -280 -163 -85 -412 19 -509 210 -49 97 -65 168 -65 274 3 268 107
465 276 520 88 29 203 23 273 -13z"/>
<path d="M7855 2536 c-276 -55 -498 -230 -633 -501 -88 -175 -117 -323 -109
-547 4 -126 10 -169 32 -243 37 -127 95 -239 173 -336 221 -274 569 -377 925
-274 115 33 182 64 285 131 200 130 351 339 413 569 31 113 31 336 1 447 -89
328 -312 583 -613 702 -147 57 -339 78 -474 52z m280 -421 c190 -49 305 -251
305 -535 0 -246 -154 -455 -371 -501 -155 -33 -285 44 -364 216 -43 92 -55
154 -55 280 0 128 20 228 64 322 89 187 239 265 421 218z"/>
<path d="M11009 433 c-34 -82 -68 -162 -75 -179 l-13 -31 163 -111 162 -110
155 90 c85 50 156 93 159 95 2 2 -8 39 -23 81 -14 42 -45 130 -68 195 l-41
117 -178 0 -178 0 -63 -147z"/>
</g>
</svg>
